# xmcd
# Track frame offsets:
# 150
# 19129
# 37185
# 49834
# 68515
# 85906
# 101838
# 117223
# 132572
# 147898
#
# Disc length: 2198 seconds
# Revision: 0
# Processed by: cddbd v1.5.1PL0 Copyright (c) Steve Scherf et al.
# Submitted via: VisiTrax 2.9.10.228 - For more info visit www.synapsa.com
#
DISCID=8d08940a
DTITLE=Sera-Jane. - In My Town.
DYEAR=2005
DGENRE=Aust.
TTITLE0=Whatever Was I Thinking.
TTITLE1=In My Town.
TTITLE2=Cowboy Of My Dreams.
TTITLE3=Love Is Blind.
TTITLE4=Eagle When She Flies.
TTITLE5=Stranded.
TTITLE6=Gonna Let You Go.
TTITLE7=Ghostriders.
TTITLE8=Country Life.
TTITLE9=Angels By My Side.
EXTD=
EXTT0=
EXTT1=
EXTT2=
EXTT3=
EXTT4=
EXTT5=
EXTT6=
EXTT7=
EXTT8=
EXTT9=
PLAYORDER=
